<svg xmlns="http://www.w3.org/2000/svg" viewBox="0 0 116.96 122.89"><g id="Layer_2" data-name="Layer 2"><g id="Layer_1-2" data-name="Layer 1"><path d="M91.53,67.05c0,.85,0,1.71,0,2.58a64.11,64.11,0,0,1-.37,7l14.92,7.57a5.51,5.51,0,0,1,2.93,3.88l6.36,28.08a5.51,5.51,0,0,1-10.76,2.42l-5.82-25.7-9.88-5C84,104.39,72.44,116,59,116S33.89,104.25,29,87.56l-10.8,4.9L13.21,118.4a5.52,5.52,0,1,1-10.85-2.07L7.83,87.69A5.51,5.51,0,0,1,11,83.59l15.77-7.16a66.83,66.83,0,0,1-.35-6.79h0c0-.87,0-1.74,0-2.61L9.83,61.27a5.49,5.49,0,0,1-3.48-3.64h0L.23,37.42a5.52,5.52,0,0,1,10.59-3.15l5.28,17.5,13.33,4.6H88.65l12.21-4.21,5.28-17.5a5.52,5.52,0,0,1,10.59,3.15L110.63,58h0a5.5,5.5,0,0,1-3.48,3.63l-15.6,5.4ZM58.66,25.55a17.26,17.26,0,0,1,6,1.11c.71-1.57,1.35-3,1.94-4.38,6.18-14,7-15.88,28.27-22.13A3.76,3.76,0,1,1,97,7.37c-17.93,5.26-18.57,6.72-23.5,18-.69,1.56-1.45,3.29-2.35,5.27,5.61,4.84,10,12.84,12.28,22.51H33.87c2.27-9.67,6.67-17.67,12.28-22.51-.91-2-1.67-3.71-2.35-5.27C38.87,14.09,38.22,12.63,20.3,7.37A3.76,3.76,0,0,1,22.42.15C43.7,6.4,44.5,8.23,50.68,22.28c.59,1.34,1.24,2.81,2,4.38a17.18,17.18,0,0,1,6-1.11ZM68,36.6a5,5,0,1,1-5,5,5,5,0,0,1,5-5Zm-18.67,0a5,5,0,1,1-5,5,5,5,0,0,1,5-5Z" fill="#bebebe" fill-rule="evenodd"/></g></g></svg>